<?xml version="1.0" encoding="UTF-8"?>
<svg width="32px" height="32px" viewBox="0 0 32 32" version="1.1" xmlns="http://www.w3.org/2000/svg" xmlns:xlink="http://www.w3.org/1999/xlink">
    <!-- Generator: sketchtool 52.2 (67145) - http://www.bohemiancoding.com/sketch -->
    <title>D1853008-6FC8-4E67-BEAC-528F98844D04</title>
    <desc>Created with sketchtool.</desc>
    <g id="Page-1" stroke="none" stroke-width="1" fill="none" fill-rule="evenodd">
        <g id="-1" transform="translate(-883.000000, -5143.000000)" fill="#444444">
            <g id="Group-12" transform="translate(883.000000, 5143.000000)">
                <g id="fb">
                    <path d="M1.334,0 C0.597,0 0,0.597 0,1.333 L0,30.667 C0,31.403 0.597,32 1.334,32 L17,32 L17,20 L13,20 L13,15 L17,15 L17,11 C17,6.867 19.617,4.833 23.304,4.833 C25.07,4.833 26.588,4.965 27.03,5.023 L27.03,9.343 L24.473,9.344 C22.468,9.344 22,10.297 22,11.695 L22,15 L27,15 L26,20 L22,20 L22.08,32 L30.667,32 C31.403,32 32,31.403 32,30.667 L32,1.333 C32,0.597 31.403,0 30.667,0 L1.334,0 Z" id="Fill-3"></path>
                </g>
            </g>
        </g>
    </g>
</svg>